<?xml version="1.0" encoding="UTF-8" standalone="no"?><!-- Generator: Gravit.io --><svg xmlns="http://www.w3.org/2000/svg" xmlns:xlink="http://www.w3.org/1999/xlink" style="isolation:isolate" viewBox="0 0 400 280" width="400pt" height="280pt"><defs><clipPath id="_clipPath_jZ7VcW9QWW8efWRpPzReEzorf9wefTx0"><rect width="400" height="280"/></clipPath></defs><g clip-path="url(#_clipPath_jZ7VcW9QWW8efWRpPzReEzorf9wefTx0)"><defs><filter id="uOON0runb0NEQM3kX7DYAi8F28g8YTN4" x="-200%" y="-200%" width="400%" height="400%" filterUnits="objectBoundingBox" color-interpolation-filters="sRGB"><feGaussianBlur xmlns="http://www.w3.org/2000/svg" stdDeviation="2.146804531419514"/></filter></defs><g filter="url(#uOON0runb0NEQM3kX7DYAi8F28g8YTN4)"><ellipse vector-effect="non-scaling-stroke" cx="69.5" cy="40" rx="107.5" ry="75" fill="rgb(0,255,149)"/></g><defs><filter id="qbVJkIpHzDlqpJPuKef6QHCifnHCpiW1" x="-200%" y="-200%" width="400%" height="400%" filterUnits="objectBoundingBox" color-interpolation-filters="sRGB"><feGaussianBlur xmlns="http://www.w3.org/2000/svg" stdDeviation="2.146804531419514"/></filter></defs><g filter="url(#qbVJkIpHzDlqpJPuKef6QHCifnHCpiW1)"><path d=" M 58.271 372.145 C 19.66 357.223 5.678 300.178 27.066 244.836 C 48.454 189.495 97.165 156.679 135.776 171.601 C 174.386 186.523 188.369 243.568 166.981 298.91 C 145.593 354.251 96.881 387.067 58.271 372.145 Z " fill="rgb(89,171,249)"/></g><defs><filter id="uhwMuzSnc5MclMijUPDGf5PdPcdsrEFa" x="-200%" y="-200%" width="400%" height="400%" filterUnits="objectBoundingBox" color-interpolation-filters="sRGB"><feGaussianBlur xmlns="http://www.w3.org/2000/svg" stdDeviation="2.146804531419514"/></filter></defs><g filter="url(#uhwMuzSnc5MclMijUPDGf5PdPcdsrEFa)"><path d=" M 310.271 158.145 C 271.66 143.223 257.678 86.178 279.066 30.836 C 300.454 -24.505 349.165 -57.321 387.776 -42.399 C 426.386 -27.477 440.369 29.568 418.981 84.91 C 397.593 140.251 348.881 173.067 310.271 158.145 Z " fill="rgb(0,255,221)"/></g><defs><filter id="2vESr4MxzLPWtVXfWqbXLe3Mj6e3ABxZ" x="-200%" y="-200%" width="400%" height="400%" filterUnits="objectBoundingBox" color-interpolation-filters="sRGB"><feGaussianBlur xmlns="http://www.w3.org/2000/svg" stdDeviation="2.146804531419514"/></filter></defs><g filter="url(#2vESr4MxzLPWtVXfWqbXLe3Mj6e3ABxZ)"><path d=" M 248.88 218.79 C 263.929 180.229 321.02 166.435 376.291 188.005 C 431.562 209.576 464.216 258.395 449.167 296.956 C 434.118 335.517 377.027 349.311 321.756 327.741 C 266.485 306.17 233.831 257.351 248.88 218.79 Z " fill="rgb(0,255,255)"/></g><defs><filter id="eQu1vhQtyJXHAShbWy9FiTwJNRiVfhaA" x="-200%" y="-200%" width="400%" height="400%" filterUnits="objectBoundingBox" color-interpolation-filters="sRGB"><feGaussianBlur xmlns="http://www.w3.org/2000/svg" stdDeviation="2.6620376189601975"/></filter></defs><g filter="url(#eQu1vhQtyJXHAShbWy9FiTwJNRiVfhaA)"><ellipse vector-effect="non-scaling-stroke" cx="34" cy="162" rx="9" ry="8" fill="rgb(0,213,255)"/></g><defs><filter id="ZAplxM9Dd0Aco276tX09N45Y3oc29YjC" x="-200%" y="-200%" width="400%" height="400%" filterUnits="objectBoundingBox" color-interpolation-filters="sRGB"><feGaussianBlur xmlns="http://www.w3.org/2000/svg" stdDeviation="2.6620376189601975"/></filter></defs><g filter="url(#ZAplxM9Dd0Aco276tX09N45Y3oc29YjC)"><ellipse vector-effect="non-scaling-stroke" cx="101" cy="132" rx="9" ry="8.000000000000007" fill="rgb(0,255,179)"/></g><defs><filter id="nc2UzG5NkD64DIVt20V2t3rpPW2uZBMs" x="-200%" y="-200%" width="400%" height="400%" filterUnits="objectBoundingBox" color-interpolation-filters="sRGB"><feGaussianBlur xmlns="http://www.w3.org/2000/svg" stdDeviation="2.6620376189601975"/></filter></defs><g filter="url(#nc2UzG5NkD64DIVt20V2t3rpPW2uZBMs)"><ellipse vector-effect="non-scaling-stroke" cx="200" cy="49.87309403627839" rx="9" ry="8.000000000000014" fill="rgb(0,157,255)"/></g><defs><filter id="mWZmQkLhqt8ETLnGs9icXgTUPTlLyFx7" x="-200%" y="-200%" width="400%" height="400%" filterUnits="objectBoundingBox" color-interpolation-filters="sRGB"><feGaussianBlur xmlns="http://www.w3.org/2000/svg" stdDeviation="2.6620376189601975"/></filter></defs><g filter="url(#mWZmQkLhqt8ETLnGs9icXgTUPTlLyFx7)"><ellipse vector-effect="non-scaling-stroke" cx="200" cy="124" rx="9" ry="8.000000000000007" fill="rgb(0,255,221)"/></g><defs><filter id="C74o3Hg8q8ZNdbM1dokaAPqr9HWizFJ0" x="-200%" y="-200%" width="400%" height="400%" filterUnits="objectBoundingBox" color-interpolation-filters="sRGB"><feGaussianBlur xmlns="http://www.w3.org/2000/svg" stdDeviation="2.6620376189601975"/></filter></defs><g filter="url(#C74o3Hg8q8ZNdbM1dokaAPqr9HWizFJ0)"><ellipse vector-effect="non-scaling-stroke" cx="260.04688240924276" cy="177.81435909662014" rx="9" ry="8" fill="rgb(0,255,0)"/></g><defs><filter id="y5PF0aAb0t0wOx1lh4SW9dLtnoRQT12d" x="-200%" y="-200%" width="400%" height="400%" filterUnits="objectBoundingBox" color-interpolation-filters="sRGB"><feGaussianBlur xmlns="http://www.w3.org/2000/svg" stdDeviation="2.6620376189601975"/></filter></defs><g filter="url(#y5PF0aAb0t0wOx1lh4SW9dLtnoRQT12d)"><ellipse vector-effect="non-scaling-stroke" cx="167.99999999999997" cy="161.74618807255678" rx="9" ry="8" fill="rgb(0,255,255)"/></g><defs><filter id="xmZm0bnsZR5myop4HTahByqjd38K7scb" x="-200%" y="-200%" width="400%" height="400%" filterUnits="objectBoundingBox" color-interpolation-filters="sRGB"><feGaussianBlur xmlns="http://www.w3.org/2000/svg" stdDeviation="2.6620376189601975"/></filter></defs><g filter="url(#xmZm0bnsZR5myop4HTahByqjd38K7scb)"><ellipse vector-effect="non-scaling-stroke" cx="227" cy="263.8730940362784" rx="9" ry="8" fill="rgb(74,134,232)"/></g><defs><filter id="YdkMGLsgSv7GejxTdNei47jPw7jZjst3" x="-200%" y="-200%" width="400%" height="400%" filterUnits="objectBoundingBox" color-interpolation-filters="sRGB"><feGaussianBlur xmlns="http://www.w3.org/2000/svg" stdDeviation="2.6620376189601975"/></filter></defs><g filter="url(#YdkMGLsgSv7GejxTdNei47jPw7jZjst3)"><ellipse vector-effect="non-scaling-stroke" cx="218.00000000000003" cy="198.12690596372158" rx="9" ry="8" fill="rgb(255,255,0)"/></g><defs><filter id="dBGGlBse1uVlbi4C8D38qYhiLtKCtr3w" x="-200%" y="-200%" width="400%" height="400%" filterUnits="objectBoundingBox" color-interpolation-filters="sRGB"><feGaussianBlur xmlns="http://www.w3.org/2000/svg" stdDeviation="2.6620376189601975"/></filter></defs><g filter="url(#dBGGlBse1uVlbi4C8D38qYhiLtKCtr3w)"><ellipse vector-effect="non-scaling-stroke" cx="386" cy="169.81435909662014" rx="9" ry="8" fill="rgb(0,150,136)"/></g><defs><filter id="g9jUEjhAcXIb72OKQThbZv6aha3PQi6f" x="-200%" y="-200%" width="400%" height="400%" filterUnits="objectBoundingBox" color-interpolation-filters="sRGB"><feGaussianBlur xmlns="http://www.w3.org/2000/svg" stdDeviation="2.6620376189601975"/></filter></defs><g filter="url(#g9jUEjhAcXIb72OKQThbZv6aha3PQi6f)"><ellipse vector-effect="non-scaling-stroke" cx="260.04688240924276" cy="32" rx="9" ry="8.000000000000014" fill="rgb(0,255,123)"/></g></g></svg>